<?xml version="1.0" encoding="utf-8"?><svg version="1.1" id="Union_60" xmlns="http://www.w3.org/2000/svg" xmlns:xlink="http://www.w3.org/1999/xlink" x="0px" y="0px" width="16px" height="16px" viewBox="0 0 16 16" enable-background="new 0 0 16 16" xml:space="preserve"><g><path fill-rule="evenodd" clip-rule="evenodd" d="M-2033.553,14.088l-5.144-5.146-4.919,4.921a1,1,0,0,1-1.415,0,1,1,0,0,1,0-1.414l4.92-4.921-5.18-5.181a1,1,0,0,1,0-1.414,1,1,0,0,1,1.414,0l5.18,5.181,5.405-5.406a1,1,0,0,1,1.415,0,1,1,0,0,1,0,1.414l-5.406,5.407,5.145,5.146a1,1,0,0,1,0,1.414,1,1,0,0,1-.707.293A1,1,0,0,1-2033.553,14.088Z"/></g></svg>